<?xml version="1.0" standalone="no"?>
<!DOCTYPE svg PUBLIC "-//W3C//DTD SVG 20010904//EN"
 "http://www.w3.org/TR/2001/REC-SVG-20010904/DTD/svg10.dtd">
<svg version="1.0" xmlns="http://www.w3.org/2000/svg"
 width="700.000000pt" height="700.000000pt" viewBox="0 0 700.000000 700.000000"
 preserveAspectRatio="xMidYMid meet">
<metadata>
Created by potrace 1.14, written by Peter Selinger 2001-2017
</metadata>
<g transform="translate(0.000000,700.000000) scale(0.100000,-0.100000)"
fill="#000000" stroke="none">
<path d="M797 4893 c-4 -3 -7 -633 -7 -1400 l0 -1393 390 0 390 0 0 1080 0
1081 648 -3 c636 -3 648 -4 712 -25 140 -48 201 -130 220 -298 6 -54 10 -444
10 -962 l0 -873 387 0 386 0 -7 1133 c-6 930 -10 1143 -21 1195 -62 266 -304
427 -692 461 -130 12 -2405 16 -2416 4z"/>
<path d="M4095 4889 c-3 -8 -4 -151 -3 -319 l3 -305 465 -5 c503 -6 505 -6
620 -65 165 -86 169 -241 7 -319 -120 -58 -134 -60 -632 -66 l-460 -5 0 -305
0 -305 455 -6 c493 -7 521 -9 636 -66 67 -33 109 -79 124 -134 24 -88 -16
-157 -120 -203 -119 -54 -158 -58 -647 -63 l-453 -5 0 -310 0 -310 558 5 c584
4 626 7 849 56 270 59 487 180 597 334 84 118 118 232 118 397 0 266 -105 441
-352 586 l-53 31 64 43 c131 89 212 192 246 313 24 87 29 318 9 417 -51 252
-213 420 -496 514 -249 83 -381 96 -1012 103 -438 5 -518 4 -523 -8z"/>
<path d="M2020 2955 l0 -855 360 0 360 0 0 855 0 855 -360 0 -360 0 0 -855z"/>
</g>
</svg>
